<?xml version="1.0" encoding="utf-8"?>
<!-- Generator: Adobe Illustrator 19.0.0, SVG Export Plug-In . SVG Version: 6.00 Build 0)  -->
<svg version="1.1" id="Layer_1" xmlns="http://www.w3.org/2000/svg" xmlns:xlink="http://www.w3.org/1999/xlink" x="0px" y="0px"
	 viewBox="-357 448 285 105" style="enable-background:new -357 448 285 105;" xml:space="preserve">
<style type="text/css">
	.st0{fill:#E54128;}
	.st1{fill:#E8DFDF;}
</style>
<rect id="XMLID_1_" x="-357" y="448" class="st0" width="285" height="105"/>
<g>
	<path class="st1" d="M-323.4,493.4c0-0.5,0.1-1,0.3-1.3c0.1-0.1,0.4-0.2,0.7-0.1c1.8,0.7,3.7,1.3,5.7,1.7c2,0.4,4,0.6,6,0.6h0.1
		c4.7-6.2,9.4-12.3,14.1-18.2c4.7-5.9,9.5-11.5,14.2-16.9c0.5-0.5,1-0.7,1.6-0.5c0.6,0.2,1.2,0.5,1.9,1c0.6-1,1.1-1.5,1.6-1.5
		c0.5,0,1.2,0.1,2.2,0.4c1,0.3,2,0.6,2.9,1c1,0.4,1.8,0.8,2.5,1.3c0.7,0.5,1.1,0.9,1.1,1.3c0,0.2-0.1,0.4-0.2,0.5
		c-0.3,0.3-0.5,0.6-0.7,0.8c-0.2,0.2-0.4,0.5-0.6,0.8c-1,1.8-2,4.2-3.1,7.2c-1.1,3-2.1,6.4-3.1,10.1s-2,7.5-2.9,11.5
		c-0.9,4-1.7,7.8-2.4,11.4c-0.7,3.6-1.2,6.9-1.6,9.8c-0.4,2.9-0.6,5.2-0.6,6.8c0,0.8-0.4,1.2-1.2,1.2c-0.6,0-1.3-0.1-2-0.4
		c-0.8-0.3-1.5-0.6-2.1-1c-0.7-0.4-1.2-0.9-1.7-1.4c-0.5-0.5-0.7-1.1-0.7-1.6c0-2.4,0.2-5.2,0.6-8.5c0.4-3.3,0.9-6.8,1.5-10.6
		c-2.8,0.1-5.5,0.4-8.1,0.9c-2.6,0.5-5.3,0.9-8,1.2c-1.9,2.8-3.8,5.8-5.7,9c-2,3.2-3.7,6.2-5.2,8.8c-0.3,0.7-0.6,1.3-0.8,1.8
		c-0.2,0.5-0.4,1.1-0.5,1.9c-0.1,0.3-0.2,0.5-0.3,0.5c-0.3,0.3-0.9,0.3-1.7,0c-0.8-0.3-1.7-0.6-2.6-1.1c-1-0.5-1.9-1-2.7-1.5
		c-0.8-0.5-1.4-1-1.7-1.4c-0.3-0.3-0.4-0.7-0.3-1.1c0.1-0.4,0.2-0.9,0.4-1.3c0.2-0.4,0.4-0.8,0.6-1.2c0.2-0.4,0.4-0.7,0.6-1
		c1.5-2,3.1-4.2,4.8-6.6c1.7-2.4,3.3-4.6,4.8-6.6c-1.9-0.1-3.5-0.4-4.8-1.1c-0.3-0.1-0.6-0.5-0.9-1.1c-0.3-0.6-0.6-1.3-0.9-2
		c-0.3-0.7-0.5-1.5-0.7-2.2C-323.3,494.3-323.4,493.8-323.4,493.4z M-290.6,493.3c0.8,0,1.6,0.2,2.4,0.5c0.8-4.3,1.7-8.6,2.7-12.7
		c1-4.2,2-8,3-11.3c-3.1,3.8-6.1,7.7-9.1,11.8c-3,4.1-6,8.2-8.8,12.4c1.7-0.1,3.3-0.3,4.9-0.4C-293.9,493.4-292.3,493.3-290.6,493.3
		z"/>
	<path class="st1" d="M-279.8,541.9c0-2.8,0.2-6.2,0.6-10.3c0.4-4.1,0.9-8.3,1.6-12.8c0.7-4.4,1.5-8.9,2.3-13.2
		c0.9-4.4,1.7-8.3,2.6-11.8s1.8-6.3,2.6-8.5c0.9-2.2,1.7-3.3,2.4-3.3c0.5,0,1.2,0.1,2.2,0.4c1,0.3,2,0.6,2.9,1
		c0.9,0.4,1.8,0.8,2.5,1.3c0.7,0.5,1.1,0.9,1.1,1.3c0,0.1-0.1,0.2-0.2,0.5c-0.2,0.3-0.4,0.5-0.6,0.7c-0.2,0.2-0.4,0.5-0.5,0.8
		c-0.6,1.1-1.2,2.3-1.7,3.7c-0.6,1.4-1.1,3-1.6,4.8c1-1.9,2.1-3.7,3.2-5.4c1.1-1.8,2.3-3.5,3.5-5.1c1-1.3,2.1-2.4,3.2-3.3
		s2.3-1.3,3.4-1.3c1.1,0,2.1,0.3,3.1,0.9c1,0.6,1.9,1.3,2.6,2.2c0.7,0.9,1.3,1.8,1.8,2.8c0.5,1,0.7,1.9,0.7,2.7
		c0,2.8-0.6,5.7-1.7,8.8c-1.1,3.1-2.5,6.1-4,9c2.3-1.7,4.5-3.9,6.6-6.4c2.1-2.6,3.8-5.6,5.3-9.2c0.2-0.4,0.5-0.6,0.8-0.7
		c0.3-0.1,0.7-0.1,1,0c0.3,0.1,0.6,0.4,0.7,0.7c0.2,0.3,0.2,0.7,0,1.1c-1.7,4.3-4.1,8.2-7.2,11.5c-3.1,3.4-6.6,6.2-10.8,8.4
		c-1.9,2.7-4,4.8-6.1,6.5s-4.1,2.5-5.8,2.5c-1.3,0-2.5-0.2-3.4-0.5c-1-0.4-1.7-0.8-2.2-1.3c-0.5,2.6-0.9,5.1-1.3,7.6
		c-0.4,2.5-0.7,4.8-1,6.9c-0.3,2.2-0.5,4.1-0.6,5.8c-0.1,1.7-0.2,3.1-0.2,4.2c0,0.8-0.4,1.2-1.2,1.2c-0.6,0-1.3-0.1-2-0.4
		c-0.8-0.3-1.5-0.6-2.1-1s-1.2-0.9-1.7-1.4C-279.5,543-279.8,542.4-279.8,541.9z M-254.5,488c-3.2,3.8-5.8,7.9-8,12.3
		c-2.2,4.4-3.9,8.9-5.2,13.6c-0.1,0.4-0.2,0.8-0.2,1.1c0,0.4-0.1,0.7-0.2,1.1c0.7-0.4,1.5-0.7,2.6-0.8c0.8-0.1,1.7-0.2,2.6-0.5
		c1-0.3,2-0.6,3-0.9c0.9-1.3,1.9-2.8,2.9-4.7c1-1.9,1.9-3.8,2.7-6c0.8-2.1,1.5-4.3,2-6.6c0.5-2.3,0.9-4.5,1-6.7c0-2.1-0.5-3-1.5-2.9
		C-253.5,487.1-254,487.4-254.5,488z"/>
	<path class="st1" d="M-224.7,515.7c0.1-0.7,0.2-1.3,0.3-1.9c0.1-0.6,0.1-1.2,0.2-1.9c0.1-0.1,0.1-0.2,0.1-0.3s0-0.2,0.1-0.3
		c-1.5,3.1-3.2,5.7-5,7.9c-1.8,2.2-3.9,3.3-6.1,3.3c-0.9,0-1.8-0.2-2.7-0.6s-1.7-1-2.3-1.6c-0.7-0.7-1.2-1.4-1.5-2.2
		c-0.4-0.8-0.5-1.6-0.4-2.3c0.1-0.7,0.2-1.3,0.2-1.9c0-0.6,0.1-1.2,0.2-1.9c0.7-4.7,1.8-9.5,3.1-14.5c1.3-4.9,2.9-9.4,4.6-13.4
		c0.4-0.9,0.9-1.3,1.5-1.3c0.5,0,1,0.1,1.6,0.3c0.6,0.2,1.2,0.4,1.8,0.7c0.6,0.3,1.1,0.6,1.6,0.9c0.5,0.3,0.9,0.6,1.2,0.9
		c0.5,0.4,0.6,0.9,0.3,1.4c-0.3,0.6-0.6,1.1-0.8,1.6c-0.7,1.9-1.4,4-2.1,6.1c-0.7,2.2-1.3,4.3-1.9,6.5c-0.6,2.2-1.1,4.3-1.6,6.5
		c-0.5,2.1-0.9,4.1-1.2,5.9c-0.3,1.1-0.2,2,0,2.6c0.3,0.6,0.7,0.9,1.2,0.9c0.8,0,1.6-0.5,2.5-1.6c0.9-1.1,1.8-2.5,2.7-4.2
		c0.9-1.7,1.8-3.6,2.6-5.7c0.9-2.1,1.7-4.1,2.4-6.1c0.7-2,1.4-3.7,1.9-5.3c0.5-1.6,0.9-2.8,1.2-3.6c0.4-1.2,0.8-2.4,1.2-3.5
		c0.4-1.1,0.8-2.2,1.3-3.3c0.4-0.9,0.9-1.3,1.5-1.3c0.5,0,1,0.1,1.6,0.3c0.6,0.2,1.2,0.4,1.8,0.7c0.6,0.3,1.1,0.6,1.6,0.9
		c0.5,0.3,0.9,0.6,1.2,0.9c0.5,0.4,0.6,0.9,0.3,1.4c-0.3,0.6-0.6,1.1-0.7,1.6c-0.9,2.2-1.7,4.5-2.4,7c-0.8,2.5-1.5,4.9-2.1,7.4
		c-0.7,2.5-1.2,4.8-1.7,7.1s-0.9,4.3-1.2,6.1c-0.1,0.7,0,1.1,0.3,1.2c0.3,0.1,0.7-0.1,1.2-0.5c1.5-1.5,2.9-3.3,4.2-5.4
		c1.3-2.1,2.5-4.3,3.6-6.5c1.1-2.3,2.1-4.5,3-6.7c0.9-2.2,1.7-4.1,2.3-5.9c0.2-0.4,0.5-0.7,0.8-0.8c0.3-0.1,0.7-0.1,1,0
		c0.3,0.1,0.6,0.4,0.7,0.7c0.2,0.3,0.2,0.7,0,1.1c-0.5,1.1-1.1,2.6-1.8,4.5c-0.7,1.9-1.6,3.9-2.6,6c-1,2.2-2.1,4.3-3.3,6.5
		c-1.2,2.2-2.5,4.2-3.8,5.9c-1.3,1.8-2.7,3.2-4.1,4.3c-1.4,1.1-2.8,1.7-4.2,1.7c-1.7,0-3.1-0.7-4.1-2.2
		C-224.4,518.9-224.8,517.3-224.7,515.7z"/>
	<path class="st1" d="M-208.3,517.7c0.2-2.6,0.6-5.4,1.1-8.3c0.5-3,1.2-5.9,1.9-8.9c0.7-3,1.5-5.8,2.4-8.7c0.9-2.8,1.9-5.4,2.9-7.8
		c0.3-0.9,0.8-1.3,1.4-1.3c0.5,0,1,0.1,1.6,0.3c0.6,0.2,1.3,0.4,1.9,0.7c0.6,0.3,1.2,0.6,1.7,0.9c0.5,0.3,0.9,0.6,1.2,0.9
		c0.5,0.4,0.6,0.9,0.3,1.4c-0.3,0.6-0.6,1.1-0.8,1.6c-0.9,2.4-1.8,4.9-2.6,7.7c-0.8,2.7-1.6,5.4-2.2,8.2c0.9-1.9,1.8-3.9,2.9-6
		c1.1-2.1,2.2-4,3.4-6c1.2-1.9,2.4-3.7,3.6-5.3c1.2-1.6,2.4-2.9,3.6-3.9c0.5-0.5,1.1-0.7,1.9-0.7c0.3,0,0.7,0.1,1.2,0.2
		c0.5,0.1,1.1,0.3,1.7,0.5c0.6,0.2,1.2,0.5,1.8,0.8c0.6,0.3,1,0.6,1.4,1c0.7,0.7,0.9,1.2,0.6,1.7c-0.3,0.5-0.7,0.9-1.2,1.3
		c-1.7,1.5-3,3.3-3.8,5.5c-0.8,2.2-1.3,4.1-1.4,5.9c-0.1,1.3,0.1,2.2,0.5,2.7c0.4,0.6,0.9,0.8,1.4,0.8c1.1,0,2.1-0.4,3.1-1.3
		c1-0.9,1.9-1.9,2.8-3.1c0.9-1.2,1.7-2.4,2.4-3.7c0.7-1.3,1.3-2.3,1.8-3.1c0.3-0.4,0.6-0.6,0.9-0.6c0.4,0,0.7,0,1,0.2
		c0.3,0.2,0.5,0.5,0.6,0.8c0.1,0.3,0,0.7-0.1,1.1c-0.5,0.9-1.2,2-2,3.3c-0.8,1.3-1.7,2.6-2.6,3.9c-1,1.3-2,2.5-3.1,3.6
		c-1.1,1.1-2.2,1.8-3.4,2.2c-0.9,0.3-1.8,0.4-2.9,0.2c-1.1-0.2-2.2-0.6-3.2-1.1c-1-0.6-1.9-1.3-2.7-2.2c-0.8-0.9-1.2-1.9-1.3-3
		c-0.1-1.5,0.1-3.3,0.7-5.3c0.6-2,1.3-3.8,2-5.3c0.2-0.5,0.2-0.7,0.1-0.6c-0.1,0-0.2,0.2-0.4,0.4c-1.6,1.9-3.2,4.4-4.9,7.3
		c-1.7,3-3.2,6-4.6,9c-1.4,3.1-2.6,6-3.5,8.8c-0.9,2.8-1.5,5-1.6,6.6c0,0.5-0.1,0.8-0.3,0.9c-0.2,0.1-0.5,0.1-0.8,0.1
		c-0.6,0-1.3-0.1-2-0.4c-0.7-0.3-1.4-0.7-2-1.1c-0.6-0.5-1.2-1-1.6-1.5C-208.1,518.8-208.3,518.3-208.3,517.7z"/>
	<path class="st1" d="M-159.6,515.7c0.1-0.7,0.2-1.3,0.2-1.9c0-0.6,0.1-1.2,0.2-1.9c0.1-0.1,0.1-0.4,0.1-0.7c-1.5,3.1-3.1,5.7-5,7.9
		c-1.9,2.2-3.9,3.3-6.2,3.3c-2,0-3.5-0.6-4.6-1.7c-1.1-1.2-1.7-2.6-1.9-4.4c-0.3-2.7-0.2-5.7,0.2-9.1c0.5-3.3,1.4-6.6,2.6-9.7
		c1.3-3.2,2.8-6,4.7-8.7c1.9-2.6,4.1-4.6,6.5-5.9c0.8-0.5,1.6-0.7,2.4-0.6c0.8,0,1.7,0.2,2.5,0.5c0.9,0.3,1.7,0.7,2.6,1.1
		c0.9,0.5,1.8,0.9,2.7,1.4c0.1-0.1,0.2-0.3,0.3-0.6c0.1-0.3,0.1-0.5,0.2-0.7c0.4-0.9,0.9-1.3,1.5-1.3c0.5,0,1,0.1,1.6,0.3
		c0.6,0.2,1.2,0.4,1.8,0.7c0.6,0.3,1.1,0.6,1.6,0.9c0.5,0.3,0.9,0.6,1.2,0.9c0.5,0.4,0.6,0.9,0.3,1.4c-0.3,0.6-0.6,1.1-0.8,1.6
		c-0.8,2.2-1.6,4.5-2.3,7c-0.7,2.5-1.4,4.9-2,7.4c-0.6,2.5-1.1,4.8-1.6,7.1c-0.5,2.3-0.9,4.3-1.2,6.1c-0.1,0.7,0,1.1,0.3,1.2
		c0.3,0.1,0.7-0.1,1.1-0.5c1.5-1.5,2.9-3.3,4.2-5.4s2.5-4.3,3.5-6.5c1.1-2.3,2-4.5,2.8-6.7c0.8-2.2,1.6-4.1,2.2-5.9
		c0.2-0.4,0.5-0.7,0.8-0.8c0.3-0.1,0.7-0.1,1,0c0.3,0.1,0.6,0.4,0.7,0.7c0.2,0.3,0.2,0.7,0,1.1c-0.5,1.1-1,2.6-1.7,4.5
		c-0.7,1.9-1.5,3.9-2.5,6c-1,2.2-2.1,4.3-3.2,6.5c-1.2,2.2-2.4,4.2-3.7,5.9c-1.3,1.8-2.6,3.2-4,4.3c-1.4,1.1-2.8,1.7-4.2,1.7
		c-0.9,0-1.6-0.2-2.3-0.6c-0.7-0.4-1.3-0.9-1.8-1.6c-0.5-0.7-0.9-1.4-1.1-2.2C-159.6,517.3-159.7,516.5-159.6,515.7z M-167.3,517.3
		c0.8,0,1.6-0.5,2.5-1.6c0.9-1.1,1.7-2.5,2.6-4.2c0.9-1.7,1.7-3.6,2.5-5.7c0.8-2.1,1.5-4.1,2.2-6.1c0.7-2,1.3-3.7,1.8-5.3
		s0.9-2.8,1.1-3.6c0.1-0.5,0.3-0.9,0.4-1.3c0.2-0.4,0.3-0.8,0.5-1.2c-0.5-0.9-1.3-1.3-2.4-1.3c-1.7,0-3.3,0.9-4.8,2.8
		c-1.5,1.9-2.8,4.1-3.9,6.8c-1.1,2.7-2,5.5-2.7,8.5c-0.7,3-1.1,5.5-1.2,7.6c0,0.3,0,0.7,0,1.2c0,0.5,0,1,0,1.5
		c0.1,0.5,0.2,0.9,0.4,1.3C-168,517.1-167.7,517.3-167.3,517.3z"/>
	<path class="st1" d="M-115.7,483.4c1.2,0.7,2.1,1.7,2.6,3c0.6,1.3,0.6,2.5,0.1,3.6c-0.8,1.9-1.7,3.9-2.8,6.1
		c-1.1,2.2-2.2,4.4-3.5,6.8c0.9,0.5,1.9,0.6,2.9,0.4c1.6-0.3,3.2-1.3,4.7-3c1.5-1.7,3.3-4.3,5.2-7.8c0.2-0.4,0.5-0.6,0.8-0.7
		c0.4-0.1,0.7,0,1,0.1c0.3,0.2,0.5,0.4,0.6,0.7c0.1,0.3,0.1,0.7-0.1,1.1c-2.1,3.9-4.1,6.9-6,8.8c-1.9,2-3.8,3.1-5.7,3.4
		c-1.9,0.3-3.4,0.1-4.7-0.7c-1.5,2.8-3.1,5.5-4.8,8.1c-1.7,2.6-3.3,4.8-4.9,6.8c-0.5,0.6-1,1.2-1.7,1.7c-0.7,0.5-1.4,0.8-2.1,0.8
		c-0.7,0-1.6-0.1-2.6-0.4c-1-0.3-1.9-0.7-2.8-1.2c-0.9-0.5-1.6-1.1-2.2-1.8c-0.6-0.7-0.9-1.4-0.9-2.2c0-2.6,0.1-5.3,0.2-8.1
		c0.2-2.8,0.4-5.7,0.7-8.5c0.3-2.9,0.7-5.6,1.2-8.4c0.5-2.7,1.1-5.3,1.7-7.7c0.3-1,0.9-1.5,1.7-1.5c1,0,2.1,0.2,3.4,0.6
		c1.3,0.4,2.3,0.9,2.9,1.3c0.5,0.3,0.7,0.8,0.4,1.4c-0.2,0.6-0.4,1.2-0.5,1.6c-0.5,2-1.1,4.3-1.6,6.8c-0.5,2.6-1,5.2-1.5,7.8
		c-0.5,2.7-0.9,5.2-1.2,7.7c-0.3,2.5-0.5,4.6-0.6,6.4c-0.1,0.5,0,0.7,0.1,0.8c0.2,0.1,0.4-0.1,0.7-0.5c0.9-1.2,1.8-2.6,2.7-4.3
		c1-1.7,1.9-3.4,2.9-5.1c1-1.8,1.9-3.5,2.7-5.3c0.8-1.8,1.6-3.3,2.3-4.7c0.1-1.8,0.4-3.8,1.1-6.1c0.7-2.3,1.9-4.7,3.7-7.3
		c0.5-0.7,1-1.1,1.6-1C-116.9,482.9-116.3,483-115.7,483.4z"/>
</g>
</svg>
