<?xml version="1.0" encoding="utf-8"?>
<!-- Generator: Adobe Illustrator 19.0.0, SVG Export Plug-In . SVG Version: 6.00 Build 0)  -->
<svg version="1.1" id="Layer_1" xmlns="http://www.w3.org/2000/svg" xmlns:xlink="http://www.w3.org/1999/xlink" x="0px" y="0px"
	 viewBox="-357 448 285 105" style="enable-background:new -357 448 285 105;" xml:space="preserve">
<style type="text/css">
	.st0{fill:#144984;}
	.st1{enable-background:new    ;}
	.st2{fill:#E8DFDF;}
</style>
<rect id="XMLID_1_" x="-357" y="448" class="st0" width="285" height="105"/>
<g class="st1">
	<path class="st2" d="M-300.6,530.5c0-2.7,0.8-5.3,2.4-7.8c1.6-2.5,3.7-4.8,6.2-6.8c2.5-2.1,5.3-4,8.3-5.6c3-1.6,5.9-3,8.7-4.2
		c1-3.9,1.7-7.8,2.3-11.7c0.6-4,0.9-7.7,1-11.4c0.1-2.3-0.1-4.2-0.4-5.8c-0.3-1.6-1-2.4-1.9-2.4c-0.6,0-1.3,0.4-2,1.3
		c-1.3,1.5-2.3,3.1-3.1,4.8c-0.8,1.8-1.4,3.6-1.9,5.5c-0.5,1.9-0.8,3.8-1.1,5.8c-0.3,2-0.5,3.8-0.7,5.6c0,0.4,0,0.7,0,1
		c0,0.3,0,0.6,0,1c0.1,0.2,0.1,0.3,0,0.5c-0.2,0.3-0.5,0.5-1,0.6c-0.5,0.1-1.1,0.1-1.8,0.1c-1.8,0-3.2-0.3-4.1-1c-1-0.7-1.3-2-1-3.8
		c0.7-3.7,1.8-7.5,3.4-11.5c1.6-4,3.5-7.6,5.7-10.7c1-1.4,2.2-2.3,3.8-2.8c1.6-0.5,3-0.7,4.2-0.7c1.2,0,2.5,0.2,3.8,0.7
		c1.3,0.4,2.5,1,3.6,1.7c1.1,0.7,2,1.5,2.8,2.4c0.7,0.9,1.1,1.7,1.1,2.6c0,3-0.2,6.6-0.6,10.8c-0.4,4.2-1.1,8.6-2,13.2
		c-0.9,4.6-2.1,9.1-3.6,13.6c-1.5,4.5-3.2,8.5-5.3,12.1c-2.1,3.6-4.5,6.5-7.2,8.7c-2.7,2.2-5.8,3.3-9.2,3.3c-1.3,0-2.6-0.2-3.9-0.6
		c-1.3-0.4-2.4-1-3.3-1.8c-1-0.8-1.7-1.7-2.3-2.8C-300.3,533.2-300.6,531.9-300.6,530.5z M-292.5,535c1.4,0,2.7-0.4,3.9-1.1
		c1.2-0.8,2.3-1.7,3.3-2.8s1.8-2.2,2.5-3.5c0.7-1.3,1.3-2.4,1.8-3.5c1-2.1,1.9-4.3,2.7-6.7c0.9-2.4,1.6-4.9,2.3-7.6
		c-2.4,1.1-4.8,2.4-7.3,3.9c-2.5,1.5-4.7,3.2-6.7,5c-2,1.8-3.6,3.7-4.9,5.8c-1.3,2.1-1.9,4.2-1.9,6.4c0,1.2,0.4,2.2,1.2,3
		C-294.8,534.6-293.8,535-292.5,535z"/>
	<path class="st2" d="M-264.5,525.3c0.1-0.6,0.2-1.2,0.2-1.8c0-0.6,0.1-1.2,0.2-1.8c0.7-4.5,1.7-9.1,2.9-13.8
		c1.3-4.7,2.7-9,4.4-12.8c0.4-0.8,0.9-1.2,1.4-1.2c0.4,0,1,0.1,1.6,0.3c0.6,0.2,1.2,0.4,1.8,0.7c0.6,0.3,1.1,0.6,1.6,0.9
		c0.5,0.3,0.9,0.6,1.2,0.9c0.5,0.4,0.6,0.8,0.3,1.4c-0.3,0.5-0.5,1.1-0.7,1.6c-0.8,2.1-1.6,4.3-2.3,6.7c-0.7,2.3-1.4,4.7-2,7
		c-0.6,2.3-1.2,4.6-1.7,6.8c-0.5,2.2-0.9,4.1-1.2,5.8c-0.1,0.7,0,1.1,0.3,1.1c0.3,0.1,0.7-0.1,1-0.5c1.5-1.5,2.8-3.2,4.1-5.2
		c1.3-2,2.4-4.1,3.5-6.2c1-2.2,2-4.3,2.9-6.4s1.6-4,2.2-5.6c0.2-0.4,0.4-0.6,0.8-0.8c0.3-0.1,0.6-0.1,0.9,0c0.3,0.1,0.6,0.3,0.7,0.7
		c0.2,0.3,0.2,0.7,0,1c-0.4,1.1-1,2.5-1.7,4.3c-0.7,1.8-1.5,3.7-2.5,5.7c-0.9,2.1-2,4.1-3.1,6.2c-1.1,2.1-2.3,4-3.6,5.7
		c-1.3,1.7-2.6,3.1-3.9,4.1c-1.4,1.1-2.7,1.6-4,1.6c-0.8,0-1.6-0.2-2.2-0.6s-1.2-0.9-1.7-1.5c-0.5-0.6-0.8-1.3-1-2.1
		C-264.5,526.8-264.6,526.1-264.5,525.3z M-249.2,476.8c0.9-1.8,1.6-2.7,2.3-2.7c0.5,0.1,1.3,0.3,2.5,0.9c1.2,0.5,2.2,1.1,3.1,1.7
		c1.3,0.9,1.5,2.2,0.4,3.9c-0.4,0.7-1.1,1.6-1.9,2.8c-0.8,1.2-1.6,2.4-2.5,3.5c-0.9,1.1-1.8,2.1-2.6,3c-0.9,0.9-1.6,1.3-2.1,1.3
		c-1.3,0.1-2.1-0.6-2.3-1.9c-0.2-1.3-0.1-2.8,0.2-4.5c0.4-1.7,0.9-3.3,1.5-4.9C-250,478.4-249.5,477.3-249.2,476.8z"/>
	<path class="st2" d="M-248.7,527.2c0.2-2.5,0.5-5.1,1-7.9c0.5-2.8,1.1-5.6,1.8-8.5c0.7-2.8,1.5-5.6,2.3-8.3
		c0.9-2.7,1.8-5.2,2.8-7.5c0.3-0.8,0.8-1.2,1.3-1.2c0.4,0,1,0.1,1.6,0.3c0.6,0.2,1.2,0.4,1.8,0.7c0.6,0.3,1.1,0.6,1.6,0.9
		c0.5,0.3,0.9,0.6,1.2,0.9c0.5,0.4,0.6,0.8,0.3,1.4c-0.3,0.5-0.6,1.1-0.8,1.6c-0.9,2.3-1.7,4.7-2.5,7.3c-0.8,2.6-1.5,5.2-2.1,7.8
		c0.8-1.8,1.8-3.7,2.8-5.7c1-2,2.1-3.9,3.3-5.7c1.1-1.8,2.3-3.5,3.5-5c1.2-1.5,2.3-2.8,3.5-3.7c0.4-0.4,1-0.7,1.8-0.7
		c0.3,0,0.8,0.1,1.5,0.3c0.7,0.2,1.4,0.5,2.1,0.8c0.7,0.3,1.4,0.7,1.9,1.1c0.5,0.4,0.8,0.8,0.8,1.3c0,0.3-0.1,0.7-0.3,1
		s-0.4,0.8-0.5,1.1c-0.2,0.4-0.3,0.8-0.5,1.2c-0.8,2-1.5,4.2-2.1,6.4c-0.7,2.2-1.3,4.5-1.9,6.7c-0.6,2.2-1.1,4.4-1.6,6.4
		c-0.5,2.1-0.8,3.9-1.1,5.6c-0.1,0.7-0.1,1.1,0.2,1.2c0.3,0.1,0.6-0.1,1.1-0.6c1.5-1.5,2.8-3.2,4.1-5.2c1.3-2,2.4-4.1,3.5-6.2
		c1-2.2,2-4.3,2.9-6.4c0.9-2.1,1.6-4,2.2-5.6c0.2-0.4,0.4-0.6,0.8-0.8c0.3-0.1,0.6-0.1,0.9,0c0.3,0.1,0.6,0.3,0.7,0.7
		c0.2,0.3,0.2,0.7,0,1c-0.4,1.1-1,2.5-1.7,4.3c-0.7,1.8-1.5,3.7-2.5,5.7c-0.9,2.1-2,4.1-3.1,6.2c-1.1,2.1-2.3,4-3.6,5.7
		c-1.3,1.7-2.6,3.1-3.9,4.1c-1.4,1.1-2.7,1.6-4,1.6c-1.6,0-3-0.5-4.1-1.6c-1.1-1-1.6-2.2-1.4-3.5c0.3-2,0.6-4.2,1-6.6
		c0.4-2.3,0.9-4.7,1.5-7.1c0.6-2.4,1.2-4.8,1.9-7.1c0.7-2.3,1.3-4.5,2-6.5c-1.1,1.1-2.2,2.5-3.3,4.2c-1.1,1.7-2.2,3.5-3.3,5.5
		c-1.1,2-2.1,4-3,6.1c-1,2.1-1.8,4.1-2.6,6c-0.8,1.9-1.4,3.7-1.9,5.4c-0.5,1.6-0.7,3-0.8,4.1c0,0.5-0.1,0.8-0.3,0.9
		c-0.2,0.1-0.5,0.1-0.8,0.1c-0.6,0-1.2-0.1-1.9-0.4c-0.7-0.3-1.3-0.6-1.9-1.1c-0.6-0.4-1.1-0.9-1.5-1.5
		C-248.5,528.2-248.7,527.7-248.7,527.2z"/>
	<path class="st2" d="M-196.5,496.1c0.9-0.9,1.9-1.6,2.9-2.1c1-0.5,2-0.5,3,0.1c0.8,0.4,1.4,1,2,1.8c0.6,0.8,1.1,1.6,1.5,2.5
		c0.5,1.1,0.7,2.1,0.5,3.1c-0.2,1-0.6,2-1.3,3c-1.3,1.8-2.7,3.5-4.4,5.1c-1.7,1.6-3.5,3-5.6,4.1c0,0.5,0.1,1.5,0.3,2.9
		c0.2,1.4,0.5,2.9,1,4.5c0.4,1.6,0.9,3,1.5,4.2c0.6,1.2,1.3,1.8,2,1.8c0.2,0,0.5-0.2,1-0.6c1.4-1.5,2.7-3.2,3.8-5.2s2.2-4.1,3.1-6.2
		c0.9-2.2,1.7-4.3,2.5-6.4c0.7-2.1,1.4-4,2-5.6c0.2-0.4,0.4-0.6,0.8-0.8c0.3-0.1,0.6-0.1,0.9,0c0.3,0.1,0.6,0.3,0.8,0.7
		c0.2,0.3,0.2,0.7,0,1c-0.4,1.1-1,2.5-1.6,4.3c-0.6,1.8-1.4,3.7-2.3,5.7c-0.9,2.1-1.8,4.1-2.8,6.2c-1,2.1-2.1,4-3.3,5.7
		c-1.2,1.7-2.5,3.1-3.8,4.1c-1.3,1.1-2.6,1.6-3.9,1.6c-1.5,0-2.8-0.5-3.9-1.6c-1.2-1.1-2.2-2.4-3-3.9c-0.9-1.6-1.5-3.2-2-5
		c-0.5-1.8-0.8-3.4-1-4.8c-1.8,3.8-3,7.3-3.6,10.6c-0.1,0.6-0.2,1.2-0.3,1.8c-0.1,0.6-0.1,1.2-0.1,1.8c0,0.8-0.4,1.1-1.1,1.1
		c-0.6,0-1.2-0.1-1.9-0.4c-0.7-0.3-1.4-0.6-2-1c-0.6-0.4-1.2-0.8-1.6-1.3c-0.4-0.5-0.7-1-0.7-1.5c0-2.8,0.2-6.1,0.7-10
		c0.5-3.9,1.1-8,1.9-12.2c0.8-4.2,1.7-8.4,2.7-12.6c1-4.1,2-7.9,3-11.2c1-3.3,2-6,2.9-8c0.9-2.1,1.7-3.1,2.4-3.1
		c0.4,0,1.1,0.1,2.1,0.4c1,0.3,1.9,0.6,2.8,1c0.9,0.4,1.7,0.8,2.4,1.2c0.7,0.4,1,0.9,1,1.2c0,0.2-0.1,0.3-0.2,0.5
		c-0.3,0.3-0.5,0.6-0.7,0.8c-0.2,0.2-0.3,0.5-0.5,0.8c-1,1.6-1.9,3.9-2.9,6.7c-1,2.8-1.9,5.9-2.9,9.3c-1,3.4-1.9,6.9-2.7,10.6
		c-0.9,3.7-1.6,7.2-2.2,10.6c1.5-3,3-6.1,4.8-9.3S-198.9,498.5-196.5,496.1z M-195.9,499.6c-1.8,2-3.4,4.3-4.8,6.7s-2.6,4.9-3.8,7.3
		c0.8-0.6,1.8-1.3,2.8-2.3c1-1,2-2.1,3-3.2s1.8-2.4,2.6-3.8c0.8-1.3,1.3-2.6,1.7-3.9c0.2-0.6,0.2-1.2,0-1.6
		C-194.6,498.4-195.1,498.7-195.9,499.6z"/>
	<path class="st2" d="M-170.4,525.3c0.1-0.6,0.2-1.2,0.2-1.8c0-0.6,0.1-1.2,0.2-1.8c0.1-0.1,0.1-0.3,0.1-0.7c-1.4,2.9-3,5.4-4.8,7.6
		c-1.8,2.1-3.7,3.2-5.9,3.2c-1.9,0-3.4-0.6-4.4-1.7c-1-1.1-1.7-2.5-1.9-4.2c-0.3-2.6-0.2-5.5,0.2-8.6c0.5-3.2,1.3-6.3,2.5-9.3
		c1.2-3,2.7-5.8,4.5-8.3c1.8-2.5,3.9-4.4,6.2-5.7c0.8-0.4,1.5-0.6,2.3-0.6c0.8,0,1.6,0.2,2.4,0.5c0.8,0.3,1.6,0.7,2.5,1.1
		c0.8,0.4,1.7,0.9,2.6,1.3c0.1-0.1,0.2-0.3,0.3-0.6c0.1-0.3,0.1-0.5,0.2-0.7c0.4-0.8,0.9-1.2,1.4-1.2c0.4,0,1,0.1,1.6,0.3
		c0.6,0.2,1.2,0.4,1.8,0.7c0.6,0.3,1.1,0.6,1.6,0.9c0.5,0.3,0.9,0.6,1.2,0.9c0.5,0.4,0.6,0.8,0.3,1.4c-0.3,0.5-0.6,1.1-0.8,1.6
		c-0.8,2.1-1.5,4.3-2.2,6.7c-0.7,2.3-1.3,4.7-1.9,7c-0.6,2.3-1.1,4.6-1.5,6.8c-0.4,2.2-0.8,4.1-1.1,5.8c-0.1,0.7,0,1.1,0.3,1.1
		c0.3,0.1,0.7-0.1,1-0.5c1.5-1.5,2.8-3.2,4-5.2s2.4-4.1,3.4-6.2c1-2.2,1.9-4.3,2.7-6.4c0.8-2.1,1.5-4,2.1-5.6
		c0.2-0.4,0.4-0.6,0.8-0.8c0.3-0.1,0.6-0.1,1,0c0.3,0.1,0.6,0.3,0.7,0.7c0.2,0.3,0.2,0.7,0,1c-0.4,1.1-1,2.5-1.7,4.3
		c-0.7,1.8-1.5,3.7-2.4,5.7c-1,2.1-2,4.1-3.1,6.2c-1.1,2.1-2.3,4-3.5,5.7c-1.2,1.7-2.5,3.1-3.8,4.1c-1.3,1.1-2.7,1.6-4,1.6
		c-0.8,0-1.6-0.2-2.2-0.6s-1.2-0.9-1.7-1.5c-0.5-0.6-0.8-1.3-1-2.1C-170.3,526.8-170.4,526.1-170.4,525.3z M-177.7,526.8
		c0.8,0,1.6-0.5,2.4-1.6c0.8-1,1.7-2.4,2.5-4c0.9-1.6,1.7-3.4,2.4-5.4c0.8-2,1.5-3.9,2.1-5.8s1.2-3.6,1.7-5.1
		c0.5-1.5,0.8-2.7,1.1-3.4c0.1-0.4,0.3-0.9,0.4-1.3c0.2-0.4,0.3-0.8,0.5-1.2c-0.5-0.8-1.3-1.2-2.3-1.2c-1.6,0-3.2,0.9-4.6,2.7
		c-1.4,1.8-2.7,3.9-3.8,6.5c-1.1,2.6-1.9,5.3-2.6,8.1c-0.7,2.8-1.1,5.2-1.2,7.3c0,0.3,0,0.6,0,1.1c0,0.5,0,1,0,1.5
		c0.1,0.5,0.2,0.9,0.4,1.3C-178.3,526.6-178.1,526.8-177.7,526.8z"/>
	<path class="st2" d="M-154.9,522.5c0.3-3,0.7-6.4,1.3-10.2c0.6-3.8,1.3-7.6,2-11.4c0.8-3.8,1.6-7.6,2.5-11.2
		c0.9-3.6,1.8-6.9,2.8-9.7c0.9-2.8,1.8-5.1,2.6-6.8c0.8-1.7,1.6-2.6,2.2-2.6c0.4,0,1.1,0.1,2,0.4c0.9,0.3,1.8,0.6,2.8,1
		c0.9,0.4,1.7,0.8,2.4,1.2c0.7,0.4,1,0.9,1,1.2c0,0.2-0.1,0.3-0.2,0.5c-0.3,0.3-0.5,0.6-0.7,0.8c-0.2,0.2-0.4,0.5-0.6,0.8
		c-1.2,2.2-2.5,5.3-3.8,9.3c-1.3,4.1-2.5,8.4-3.7,13.2c-1.2,4.7-2.2,9.4-3.1,14.1c-0.9,4.7-1.6,8.7-2,12c-0.1,1.1-0.1,1.7,0.2,1.9
		c0.3,0.2,0.7-0.1,1.4-0.8c1.4-1.5,2.7-3.2,3.9-5.2c1.2-2,2.3-4,3.3-6.1c1-2.1,1.9-4.1,2.8-6.2c0.8-2,1.5-3.8,2.1-5.4
		c0.2-0.4,0.4-0.6,0.8-0.8c0.3-0.1,0.6-0.1,1,0c0.3,0.1,0.6,0.3,0.8,0.7c0.2,0.3,0.2,0.7,0,1c-0.4,1.1-1,2.5-1.7,4.3
		c-0.7,1.8-1.5,3.7-2.5,5.7c-0.9,2.1-2,4.1-3.1,6.2c-1.1,2.1-2.3,4-3.6,5.7c-1.3,1.7-2.6,3.1-3.9,4.1c-1.3,1.1-2.7,1.6-4.1,1.6
		c-1.3,0-2.3-0.3-3-1c-0.7-0.6-1.2-1.4-1.5-2.3c-0.3-0.9-0.4-1.9-0.4-3C-155,524.4-154.9,523.4-154.9,522.5z"/>
</g>
</svg>
