<?xml version="1.0" encoding="utf-8"?>
<!-- Generator: Adobe Illustrator 19.0.0, SVG Export Plug-In . SVG Version: 6.00 Build 0)  -->
<svg version="1.1" id="Layer_1" xmlns="http://www.w3.org/2000/svg" xmlns:xlink="http://www.w3.org/1999/xlink" x="0px" y="0px"
	 viewBox="-357 448 285 105" style="enable-background:new -357 448 285 105;" xml:space="preserve">
<style type="text/css">
	.st0{fill:#144984;}
	.st1{enable-background:new    ;}
	.st2{fill:#E8DFDF;}
</style>
<rect id="XMLID_1_" x="-357" y="448" class="st0" width="285" height="105"/>
<g class="st1">
	<path class="st2" d="M-321,543.3c-1.5-0.9-2.3-2.3-2.4-4.2c-0.1-2,0.6-3.9,2.1-5.9c1.5-2,3.8-3.8,7-5.3c3.2-1.6,7.3-2.4,12.3-2.5
		c0.7-1.1,1.4-2.1,2.1-3.1c0.7-1,1.3-2,1.9-3c0.2-0.4,0.7-1,1.2-1.8s1.2-1.8,1.9-2.9c0.7-1.1,1.5-2.3,2.3-3.5
		c0.8-1.3,1.7-2.5,2.5-3.7c0.7-0.9,1.3-1.8,1.8-2.7c0.5-0.8,1-1.6,1.4-2.2c0.8-1.2,1.7-2.5,2.8-4.1c1.1-1.6,2.1-3.1,3.2-4.6
		c1.1-1.5,2.1-2.9,3-4.2c0.9-1.3,1.6-2.2,2-2.8v-0.1c0.1-0.1,0.2-0.2,0.3-0.4c0.1-0.1,0.1-0.1,0.1-0.2c0.3-0.5,0.7-1.1,1-1.8
		c0.4-0.7,0.4-1.2,0.1-1.5c-0.3-0.3-1.1-0.1-2.4,0.7c-1.3,0.8-3,2.3-5.2,4.4c-1.4,1.4-3,3.2-4.7,5.2c-1.7,2.1-3.5,4.5-5.5,7.4
		c-0.4,0.4-0.7,0.9-1,1.4c-0.6,0.9-1.2,1.9-2,3.2c-1,1.8-1.2,3.2-0.6,4.1h0.9c0.6,0.1,0.8,0.3,0.8,0.7c-0.1,0.3-0.2,0.6-0.6,1
		c-0.3,0.3-0.7,0.6-1.2,0.7c-0.5,0.2-1,0.2-1.6,0c-0.6-0.1-1.1-0.5-1.7-1c-0.9-0.9-1.5-1.7-1.8-2.6c-0.5-1.2-0.6-2.6-0.3-4.1
		c0.1-0.4,0.2-0.8,0.3-1.2s0.2-0.8,0.4-1.3c0.5-1.1,1.1-2.3,1.9-3.6c0.7-1.4,1.7-3,2.9-4.8c0.1-0.1,0.1-0.1,0.1-0.1s0-0.1,0.1-0.1
		c2.4-3.5,5.1-6.3,8-8.4c2.9-2.1,5.7-3.5,8.3-4.5c1.8-0.6,3.4-1,4.8-1.2c1.4-0.2,2.5-0.1,3.2,0c0.1,0,0.2,0,0.3,0.1
		c0.8,0.3,1.6,0.7,2.2,1.2c0.7,0.5,1.2,1.1,1.5,1.8c0.3,0.7,0.4,1.6,0.3,2.7c-0.1,1.1-0.6,2.3-1.4,3.6c-1.1,1.5-2.4,3.4-4.1,5.8
		c-1.7,2.4-3.5,4.9-5.5,7.7c-0.1,0.1-0.2,0.3-0.5,0.7c-0.5,0.7-1.2,1.7-2.1,3c-0.9,1.3-1.9,2.7-2.9,4.2c-1,1.5-2,3-3,4.5
		c-1,1.5-1.8,2.7-2.5,3.7c-0.2,0.3-0.5,0.6-0.6,0.8c-0.2,0.3-0.3,0.5-0.4,0.7c-0.2,0.3-0.3,0.4-0.4,0.6c-0.7,1.1-1.4,2.1-2.1,3.1
		c-0.7,1-1.4,2-2.1,2.9h0.9c4.3,0.3,8.5,0.6,12.5,0.8c4,0.2,7.8,0.3,11.4,0.2c3.5-0.1,6.8-0.4,9.7-0.9c2.9-0.5,5.4-1.3,7.4-2.4
		c1.3-0.7,2.2-1.1,2.8-1c0.6,0.1,0.9,0.3,1.1,0.7c0.2,0.4,0.2,1.1,0,1.9c-0.4,1.3-1.7,2.5-4,3.5c-2.3,1-5.4,1.7-9.3,2.1
		c-3.9,0.4-8.6,0.5-14,0.3c-5.4-0.2-11.5-0.8-18.2-1.8c-0.4-0.1-0.9-0.1-1.3-0.2c-0.4-0.1-0.8-0.1-1.3-0.2c-0.3,0.5-0.6,0.9-1,1.3
		c-0.3,0.4-0.7,0.8-1,1.2c-2.4,2.9-4.5,5.2-6.4,7c-1.9,1.7-3.6,3-5,4c-1.4,0.9-2.6,1.6-3.5,1.9c-0.9,0.3-1.5,0.5-1.8,0.6
		c-0.9,0.2-1.9,0.2-2.9,0C-318.9,544.4-319.9,544-321,543.3z M-317.3,541c1-0.1,2.1-0.6,3.2-1.3c1.1-0.7,2.2-1.7,3.4-2.8
		c1.1-1.1,2.3-2.4,3.4-3.8c1.2-1.4,2.3-3,3.4-4.6c-3.5,0.2-6.4,0.9-8.6,2.1c-2.3,1.1-4,2.3-5.2,3.7c-1.2,1.3-2,2.6-2.2,3.8
		c-0.3,1.2-0.2,2,0.1,2.4C-319.3,541-318.4,541.1-317.3,541z"/>
	<path class="st2" d="M-260.9,511.8c-1.7,2.7-3.5,5-5.1,6.9c-0.7,0.8-1.5,1.6-2.3,2.3c-0.8,0.7-1.6,1.3-2.4,1.7
		c-0.8,0.4-1.6,0.7-2.3,0.8c-0.7,0.1-1.5-0.1-2.1-0.5c-1.3-0.9-2.3-2-2.9-3.2c-0.7-1.2-1-2.5-1.2-3.9c-0.1-1.4,0-2.7,0.3-4.1
		c0.3-1.4,0.9-2.6,1.5-3.8c0.6-1.1,1.6-2.3,2.8-3.7c1.3-1.3,2.7-2.6,4.3-3.7l0.6-0.4c0.1-0.1,0.2-0.2,0.4-0.2c0.1,0,0.3-0.1,0.5-0.2
		c1.6-1,3.7-1.9,6.2-2.6c2.5-0.7,5.1-0.9,7.9-0.4c0.7,0.2,1.4,0.5,2.1,0.8c0.5,0.3,0.9,0.8,1.4,1.4c0.4,0.6,0.6,1.4,0.7,2.4
		c-0.1,0.4-0.1,0.7-0.1,0.9c0,0.2-0.1,0.4-0.2,0.7c-0.2,0.3-0.4,0.5-0.6,0.6v0.1c-0.2,0.1-0.4,0.2-0.6,0.2c-0.2,0-0.3,0-0.5-0.1
		c-0.3-0.1-0.4-0.4-0.4-0.8v-0.6c-0.1-0.7-0.7-1.2-1.8-1.3c-0.6-0.1-1.6,0-3,0.4c-1.4,0.4-3.1,1.2-5.1,2.4c-0.4,0.2-0.7,0.4-1.1,0.7
		c-0.3,0.3-0.7,0.5-1.1,0.7c-0.1,0.1-0.2,0.2-0.3,0.2c-0.1,0-0.2,0.1-0.3,0.2h-0.1c-0.9,0.7-1.8,1.5-2.8,2.5
		c-0.9,1.1-1.9,2.2-2.8,3.5c-1,1.3-1.8,2.5-2.4,3.6c-0.6,1.2-1,2.2-1.1,3c-0.1,0.9,0.2,1.4,0.9,1.7c0.6,0.2,1.6-0.3,3-1.4
		c1.4-1.2,2.9-2.5,4.4-4.2c1.5-1.6,3-3.3,4.4-4.9s2.4-3,3.1-3.8c0.1,0,0.1,0,0.1,0c0,0,0,0,0.1,0c0.6-0.7,1.2-1.3,2-1.8
		c0.7-0.5,1.6-0.6,2.4-0.3c1.6,0.5,2.6,1.2,3.1,2.1c0.4,0.9,0.4,1.8-0.1,2.7v0.1v0.1c-0.1,0-0.1,0-0.1,0.1c0,0.1,0,0.1,0,0.1
		c0,0,0,0,0,0.1l-0.1,0.1v0.1l-0.1,0.1c-0.1,0.1-0.2,0.3-0.3,0.5c-0.1,0.2-0.2,0.3-0.3,0.5v0.1c-0.1,0-0.1,0-0.1,0.1v0.1
		c-0.1,0-0.1,0-0.1,0.1l-0.1,0.1v0.1c-0.1,0-0.1,0-0.1,0.1c-0.6,0.9-1.1,1.8-1.6,2.7c-0.5,0.9-0.9,1.7-1.2,2.5
		c-0.3,0.8-0.4,1.4-0.4,2c0,0.6,0.2,1,0.6,1.2c0.3,0.2,0.7,0.2,1.2,0.1c0.4-0.1,0.9-0.4,1.4-0.7c0.6-0.4,1.3-1,2-2
		c0.7-0.9,1.5-1.7,2.1-2.5c0.7-0.8,1.3-1.6,1.9-2.2c0.7-0.7,1.3-1.5,1.9-2.1c0.4-0.6,0.8-1,1.2-1.2c0.3-0.2,0.6-0.2,0.8,0
		c0.2,0.2,0.4,0.7,0.4,1.5c0,0.3,0,0.6-0.1,0.9c-0.1,0.3-0.3,0.7-0.4,1.1c-0.2,0.4-0.5,0.9-0.9,1.4c-0.5,0.6-1.1,1.3-1.9,2.1
		s-1.5,1.7-2.2,2.5c-0.7,0.8-1.4,1.5-2,2.2s-0.9,1.1-1.1,1.3c-0.9,0.9-2,1.4-3.1,1.5c-1.2,0.1-2.3-0.2-3.3-0.9
		c-0.6-0.4-1.2-0.9-1.8-1.4c-0.6-0.6-1.2-1.3-1.6-2.2c-0.4-0.9-0.7-1.8-0.8-2.9C-261.6,514.3-261.4,513.1-260.9,511.8z"/>
	<path class="st2" d="M-230.2,508.5c-0.3-0.2-0.5-0.5-0.7-0.8c-0.1-0.3-0.2-0.6-0.1-1c0.1-0.3,0.3-0.8,0.7-1.3
		c0.9-1,1.6-1.9,2.1-2.8c0.6-0.9,0.7-1.5,0.5-1.8c-0.1-0.1-0.7,0.1-1.7,0.7c-1,0.6-2.2,1.6-3.6,2.8c-1.4,1.3-2.9,2.8-4.4,4.6
		c-1.5,1.8-2.8,3.8-4,6.1c-0.2,0.7-0.4,1.4-0.5,2.1c-0.1,0.5,0,1,0.2,1.5c0.2,0.5,0.7,0.9,1.4,1c1.4,0.1,2.9,0,4.5-0.4
		c1.6-0.4,3.1-1,4.7-1.8c1.6-0.8,3-1.7,4.5-2.7c1.4-1,2.7-2.1,3.9-3.2c0.3-0.3,0.6-0.6,0.9-0.8c0.3-0.2,0.5-0.5,0.8-0.7l0.7-0.7
		c0.6-0.5,1-0.8,1.4-1c0.3-0.1,0.6-0.1,0.8,0.1c0.2,0.2,0.2,0.7,0,1.7c0,0.2-0.1,0.5-0.2,0.8c-0.2,0.7-0.8,1.5-1.8,2.3
		c-0.4,0.5-0.8,0.9-1.2,1.3c-1.2,1.2-2.6,2.4-4.1,3.5c-1.5,1.1-3,2-4.6,2.8c-1.6,0.8-3.2,1.4-4.8,1.9s-3.1,0.7-4.6,0.7
		c-1.5,0.1-2.7,0-3.7-0.5c-1-0.5-1.7-0.9-2.3-1.4c-0.7-0.6-1.2-1.3-1.5-2.1c-0.7-2-0.9-3.9-0.6-5.7c0.3-1.8,0.9-3.6,1.8-5.2
		c0.9-1.6,2-3.1,3.3-4.5c1.3-1.4,2.6-2.6,4-3.6c1.3-1,2.6-1.9,3.8-2.5c1.2-0.7,2.1-1.1,2.7-1.3c1-0.2,1.9-0.2,2.6,0.1
		c0.7,0.2,1.4,0.6,1.9,0.9c0.6,0.4,1.2,1,1.6,1.6c0.3,0.4,0.6,0.9,0.8,1.4c0.2,0.4,0.3,0.9,0.4,1.5c0.1,0.6,0,1.1-0.3,1.7
		c-0.2,0.6-0.6,1.2-1,1.8c-0.4,0.6-0.9,1.2-1.4,1.6c-0.5,0.5-1.1,0.8-1.6,1.1C-229.2,508.5-229.7,508.6-230.2,508.5z"/>
	<path class="st2" d="M-187.3,509.8c0.1,0.3,0,0.6-0.1,0.9c-0.1,0.3-0.3,0.7-0.5,1.1c-0.2,0.4-0.5,0.9-0.9,1.4
		c-0.5,0.6-1.1,1.3-1.9,2.1c-0.8,0.9-1.5,1.7-2.3,2.6c-0.7,0.8-1.4,1.6-2.1,2.3c-0.6,0.7-1,1.1-1.2,1.3l-0.1,0.1l-0.2,0.2
		c-0.4,0.4-0.9,0.7-1.4,0.8c-0.5,0.2-0.9,0.3-1.4,0.5c-0.9,0.1-2.1,0-3.4-0.2c-1.3-0.3-2.9-1-4.7-2.1c-1.9-1.3-3.4-2.6-4.5-3.9
		c-1.1-1.3-1.8-2.5-2.2-3.6c-0.4-1.1-0.5-2.1-0.3-2.9c0.2-0.8,0.5-1.4,1-1.7c0.4-0.2,1.2-0.5,2.1-0.8c1-0.3,2.1-0.6,3.2-1
		c1.2-0.4,2.3-0.9,3.4-1.4c1.1-0.5,1.9-1.1,2.5-1.9c0.5-0.7,0.7-1.4,0.7-2.1v-0.1c0-0.4-0.2-0.6-0.5-0.6c-0.4-0.1-1.1,0.2-2.1,0.7
		c-1,0.6-2.2,1.3-3.4,2.1c-1.2,0.8-2.5,1.8-3.9,2.8c-1.3,1-2.5,2-3.4,2.9c-0.1,0.2-0.2,0.4-0.4,0.6l-1.2,1.9
		c-0.1,0.2-0.2,0.4-0.3,0.6s-0.2,0.4-0.3,0.6c-0.2,0.3-0.3,0.6-0.5,0.8c-0.1,0.2-0.2,0.5-0.4,0.7c-0.2,0.4-0.3,0.9-0.5,1.4
		c-0.3,0.9-0.5,1.8-0.5,2.7c0,0.7,0.2,1.2,0.6,1.6c0.3-0.1,0.6,0,0.8,0.1c0.2,0.1,0.3,0.3,0.5,0.5c0.1,0.2,0.1,0.5-0.1,0.9
		c-0.2,0.6-0.7,1-1.7,1.2c-0.2,0-0.5,0-0.7,0c-0.2,0-0.5,0-0.7,0c-0.1,0-0.2,0-0.2,0c0,0-0.1,0-0.1,0c-1.6-0.6-2.5-1.7-2.9-3.1
		c-0.4-1.5-0.4-3.1,0-4.9c0.4-1.8,1-3.8,2-5.8c0.9-2.1,1.9-4,2.9-5.8c1-1.8,2-3.4,2.9-4.8c0.9-1.4,1.5-2.3,1.9-2.8
		c0.1-0.1,0.2-0.2,0.3-0.4v-0.1c1.9-2.6,3.4-4.7,4.5-6.4c1.1-1.6,1.9-2.9,2.4-3.9c0.6-1.1,1-2,1.1-2.5c0-0.5,0-0.8-0.1-0.9
		c-0.1-0.1-0.1-0.1-0.1-0.2c-0.1-0.1-0.1-0.2-0.1-0.5c-0.1-0.3,0-0.6,0.2-0.8c0.3-0.6,1-0.8,2.1-0.8c0.6,0.1,1.3,0.3,1.9,0.7
		c0.7,0.4,1.2,0.9,1.7,1.5c0.5,0.6,0.9,1.3,1.1,2.1c0.2,0.8,0.2,1.6-0.1,2.4c-0.1,0.4-0.3,0.9-0.6,1.3c-0.4,0.7-0.9,1.6-1.6,2.7
		c-0.7,1.1-1.5,2.3-2.5,3.7s-1.9,2.8-3,4.2c-1.1,1.5-2.1,3-3.1,4.4c1.1-0.7,2.1-1.4,3.3-2.1s2.2-1.2,3.3-1.8
		c1.1-0.5,2.1-0.9,3.1-1.2c1-0.3,1.9-0.4,2.6-0.3h0.1c1.5,0.2,2.6,0.7,3.2,1.5c0.7,0.8,0.9,1.8,0.8,2.9c-0.1,0.1-0.1,0.3-0.1,0.5
		c-0.1,0.1-0.1,0.3-0.1,0.5c0,0.2-0.1,0.5-0.2,0.7c-0.2,0.6-0.5,1.3-1,2.1c-0.5,0.7-1.2,1.5-2.1,2.2c-0.9,0.7-2.1,1.4-3.6,2
		c-1.5,0.6-3.3,1-5.5,1.4c-0.3,0.1-0.6,0.1-0.9,0.1c-0.3,0-0.6,0-0.9,0c-0.1,0.1-0.2,0.1-0.3,0.1c-0.1,0.1-0.2,0.2-0.2,0.3
		c0.1,0.1,0.2,0.3,0.5,0.7c0.2,0.4,0.6,1,1,1.6c0.7,1.1,1.6,2.2,2.7,3.3c1.1,1.2,2.1,2,3,2.5c0.6,0.2,1.1,0.2,1.4,0.2
		c0.4-0.1,0.9-0.4,1.5-0.7c0.6-0.4,1.3-1,2.1-2c0.7-0.9,1.5-1.8,2.2-2.7c0.7-0.8,1.4-1.6,1.9-2.3c0.7-0.7,1.3-1.5,1.9-2.2
		c0.5-0.6,0.9-1,1.3-1.2c0.3-0.2,0.6-0.2,0.9,0S-187.3,508.8-187.3,509.8z"/>
	<path class="st2" d="M-177.9,493.3c0.8-0.2,1.6-0.3,2.2-0.2c0.7,0.1,1.3,0.3,1.7,0.7c0.5,0.3,0.8,0.7,1,1.2
		c0.2,0.5,0.3,0.9,0.1,1.4c-0.1,0.3-0.4,0.5-0.7,0.6c-0.3,0.1-0.6,0.1-0.7,0.1c-0.1,0.4-0.3,1.2-0.4,2.6c-0.2,1.3-0.1,3.2,0.1,5.6
		c0.1,1.4,0.3,2.6,0.5,3.6c0.2,1,0.4,1.9,0.6,2.8c0.2,0.8,0.2,1.5,0.2,2.2s-0.2,1.3-0.5,1.9c-0.9,1.8-2.2,3.4-4.1,4.9
		c-1.9,1.4-3.9,2.3-6,2.7c-1.4,0.3-2.6,0.3-3.5,0.1c-1-0.2-1.8-0.7-2.4-1.3c-0.6-0.6-1-1.4-1.3-2.2c-0.2-0.8-0.2-1.7,0.1-2.6
		c0.2-0.9,0.9-1.9,2.1-3c1.2-1.1,2.7-2.1,4.6-3c1.9-0.9,4.1-1.5,6.7-1.9c2.5-0.4,5.3-0.2,8.3,0.4c0.8,0.2,1.4,0.6,1.8,1.1
		c0.4,0.6,0.4,1,0.1,1.3c-0.2,0.2-0.5,0.2-0.9,0.1c-0.2-0.1-0.4-0.2-0.6-0.3c-3.1-0.5-5.9-0.4-8.3,0.4c-2.4,0.8-4.4,1.8-5.9,3
		c-1.6,1.2-2.7,2.4-3.3,3.5c-0.7,1.2-0.7,1.8-0.2,2c0.9,0.6,2,0.4,3.2-0.6c1.2-0.9,2.2-2.3,2.8-4.1c0.2-0.7,0.4-1.5,0.3-2.4
		c0-0.9-0.2-1.9-0.4-2.9c-0.2-1.1-0.5-2.2-0.7-3.3c-0.2-1.2-0.4-2.3-0.6-3.5c-1,1.2-1.9,2.3-2.6,3.3c-0.7,1-1.3,1.8-1.8,2.5
		c-0.6,0.7-1.1,1.4-1.5,2.1c-0.6,0.7-1,1.1-1.4,1.3c-0.4,0.2-0.7,0.2-0.9,0.2c-0.2,0-0.4-0.1-0.6-0.4l-0.2-0.4
		c-0.1-0.2-0.1-0.5,0-0.8c0.2-0.6,0.7-1.5,1.4-2.6c0.7-1.1,1.5-2.3,2.4-3.5c0.9-1.2,1.8-2.5,2.7-3.7c0.9-1.2,1.7-2.3,2.4-3.3
		c0.2-1.1,0.5-1.9,0.9-2.6c0.4-0.7,0.9-1.2,1.3-1.7C-179,493.9-178.5,493.5-177.9,493.3z"/>
	<path class="st2" d="M-146.6,512.2c-0.1,0-0.1,0-0.1,0c0,0-0.1,0-0.1,0c-0.2,0-0.4,0-0.6-0.1c-0.5,1.1-1,1.9-1.4,2.7
		c-0.4,0.7-1,1.5-1.8,2.4c-1.6,2.1-3.2,3.5-4.6,4.3c-1.5,0.8-2.8,1.4-3.9,1.7c-0.2,0.1-0.5,0.2-0.7,0.2c-0.3,0-0.5,0.1-0.7,0.1
		c-1.2,0.2-2.3,0.3-3.3,0c-1-0.2-1.8-0.6-2.5-1.1c-0.7-0.5-1.3-1.1-1.7-1.7s-0.8-1.2-1.1-1.8c-0.5-1.2-0.7-2.4-0.7-3.6
		c0-1.2,0.3-2.5,0.8-4c0.4-1.2,1-2.5,2-4c0.9-1.5,2-3,3.3-4.4c0.1-0.1,0.1-0.1,0.2-0.2c0.1-0.1,0.2-0.2,0.3-0.3
		c0.1-0.1,0.2-0.2,0.3-0.4c0.1-0.1,0.3-0.3,0.5-0.5c1.3-1.3,3.1-2.6,5.5-3.9c2.3-1.3,4.8-2,7.5-2.3c0.7,0,1.5,0.1,2.1,0.4
		c0.6,0.2,1.1,0.5,1.6,1c0.5,0.5,0.8,1.2,1,2.1c0,0.4,0,0.7,0,0.9c0,0.2-0.1,0.4-0.2,0.7c-0.1,0.1-0.1,0.2-0.2,0.3
		c-0.1,0.1-0.1,0.2-0.2,0.3h-0.1c-0.1,0.2-0.2,0.3-0.4,0.4c-0.2,0.1-0.4,0.1-0.6,0.1c-0.4,0-0.6-0.2-0.6-0.7c0.1-0.2,0.1-0.3,0-0.5
		c-0.1-0.7-0.8-1-2-0.8c-0.5,0.1-1.4,0.5-2.7,1.2c-1.3,0.7-2.8,1.8-4.5,3.5c-0.3,0.3-0.6,0.6-0.8,0.9c-0.2,0.3-0.5,0.6-0.7,0.9
		c-0.3,0.2-0.5,0.4-0.6,0.6c-0.4,0.5-0.7,1-1.1,1.4c-0.4,0.5-0.7,1-1.1,1.7c-1.1,1.7-1.8,3.1-2.3,4.4c-0.5,1.2-0.8,2.5-0.9,3.8
		c0.1,1.2,0.4,1.9,1,2.3c0.6,0.3,1.3,0.4,2.1,0.2s1.7-0.6,2.7-1.2c0.9-0.6,1.8-1.2,2.5-1.8c0.6-0.6,1-1,1.3-1.2
		c0.2-0.2,0.6-0.6,1.1-1.1c0.9-1.1,1.5-2,1.8-2.7c0.2-0.6,0.3-1.1,0.1-1.5c-0.2-0.4-0.4-0.9-0.7-1.4c-0.3-0.5-0.5-1-0.7-1.5
		c-0.2-0.6-0.1-1.3,0.2-2.1c0.2-0.4,0.4-0.8,0.5-1.2c0.2-0.3,0.4-0.6,0.6-0.9c0.6-0.7,1.3-1.3,1.9-1.5s1.2-0.5,1.7-0.5
		c0.1-0.1,0.3-0.2,0.5-0.2h0.3c0.2,0,0.4,0.1,0.6,0.2c0.3,0.1,0.6,0.3,0.8,0.7c0.1,0.2,0.2,0.5,0.2,1s0,1.1-0.1,1.7
		c-0.1,0.6-0.2,1.2-0.3,1.8c-0.1,0.6-0.2,1.1-0.2,1.4c-0.1,0.2-0.1,0.5-0.1,0.7c0,0.3-0.1,0.5-0.2,0.8c0.2,0,0.3,0,0.4-0.1
		c0.9-0.2,1.7-0.4,2.3-0.7c0.6-0.3,1.1-0.5,1.4-0.6c0.7-0.3,1.2-0.5,1.5-0.7c0.3-0.1,0.5,0.1,0.5,0.6c-0.1,0.1-0.1,0.3-0.1,0.5v0.2
		c0,0.3-0.1,0.7-0.3,1.1c-0.2,0.4-0.7,0.8-1.4,1.2c-0.4,0.3-1,0.5-1.8,0.6C-144.5,512.4-145.5,512.4-146.6,512.2z"/>
	<path class="st2" d="M-112,509.7c0.5-0.6,0.9-1,1.3-1.2c0.3-0.2,0.6-0.2,0.9,0c0.3,0.2,0.4,0.7,0.2,1.5c0,0.3-0.1,0.5-0.2,0.8
		c-0.1,0.3-0.3,0.7-0.5,1.1c-0.2,0.4-0.6,0.9-1.1,1.4c-0.5,0.6-1.2,1.3-2,2.1c-0.8,0.8-1.6,1.7-2.4,2.5c-0.8,0.8-1.5,1.5-2.2,2.2
		s-1.1,1.1-1.3,1.3c-1.1,0.9-2.1,1.4-3.3,1.5c-1.1,0.1-2.2-0.2-3.2-0.9c-0.9-0.6-1.7-1.5-2.5-2.8c-0.8-1.3-1-3-0.7-4.9
		c0.2-0.7,0.5-1.5,0.9-2.5c0.3-1,0.8-1.9,1.4-2.8c0.4-0.7,0.9-1.4,1.4-2.1c0.5-0.7,0.9-1.4,1.4-2.1c0.1-0.2,0.3-0.4,0.5-0.7
		c0.2-0.2,0.3-0.5,0.5-0.8c0.1-0.3,0.2-0.5,0.2-0.7c0-0.2-0.2-0.3-0.5-0.4c-0.4-0.1-1.2,0.4-2.4,1.3c-1.2,0.9-2.7,2.1-4.2,3.4
		c-1.6,1.3-3.2,2.8-4.9,4.3c-1.6,1.5-3,2.8-4.2,4c-0.2,0.4-0.4,1-0.6,1.6c-0.2,0.6-0.3,1.2-0.4,1.7c0,0.7,0.1,1.3,0.4,1.6h0.7
		c0.6,0.1,0.8,0.5,0.6,1.2c0,0.1,0,0.1-0.1,0.2c0,0.1,0,0.1-0.1,0.1c0,0.2-0.1,0.3-0.3,0.4c-0.1,0.1-0.2,0.2-0.6,0.4
		c-0.4,0.3-0.9,0.5-1.5,0.6c-0.8,0.1-1.5,0-2.1-0.3h-0.1c-0.1,0-0.1,0-0.2-0.1c-0.5-0.2-0.7-0.3-0.7-0.5c-1.3-0.9-1.9-2.3-1.8-4.1
		c0-0.8,0.2-1.7,0.5-2.8c0.1-0.1,0.1-0.2,0.1-0.4c0.1,0,0.1-0.1,0.1-0.2c0.6-1.9,1.4-3.8,2.5-5.8c1.1-2,2.3-3.9,3.5-5.7
		c0.3-0.5,0.6-1,0.8-1.5c0.2-0.5,0.4-0.9,0.6-1.3h-0.1h0.1V500v-0.7V499c-0.1-0.1-0.1-0.3-0.1-0.6c0-0.3,0.1-0.6,0.3-0.8
		c0.1-0.2,0.3-0.4,0.7-0.5c0.3-0.2,0.8-0.2,1.4-0.2c0.1,0,0.2,0,0.3,0s0.2,0,0.3,0c0.6,0.2,1.1,0.5,1.7,0.9c0.6,0.4,1.1,0.9,1.6,1.4
		c0.5,0.6,0.8,1.2,0.9,1.9c0.2,0.7,0.1,1.4-0.2,2.1c-0.1,0.2-0.2,0.4-0.3,0.6c-0.1,0.2-0.2,0.4-0.3,0.7c-0.1,0.2-0.3,0.4-0.4,0.6
		c-0.2,0.2-0.4,0.5-0.6,0.8v-0.1c-0.3,0.4-0.4,0.6-0.6,0.7c1.3-1.2,2.7-2.3,4.1-3.5c1.4-1.1,2.8-2.1,4.1-3c1.3-0.9,2.5-1.6,3.7-2.1
		s2.1-0.7,2.9-0.7h0.1c1.4,0.2,2.3,0.6,2.8,1.4c0.5,0.7,0.8,1.6,0.7,2.6c-0.1,1-0.4,2.2-1,3.4c-0.6,1.2-1.4,2.5-2.3,3.7
		c-0.1,0.1-0.2,0.3-0.3,0.4c-0.1,0.1-0.2,0.3-0.3,0.4c-0.1,0.2-0.2,0.4-0.4,0.5c-0.1,0.2-0.2,0.3-0.4,0.4l-1.3,1.8v0.1
		c-1.3,1.8-2.3,3.3-3,4.5c-0.7,1.2-0.7,2.1,0.1,2.6c0.2,0.2,0.6,0.2,1.1,0.1c0.4-0.1,0.9-0.4,1.5-0.7c0.6-0.4,1.4-1,2.2-1.9
		c0.9-0.9,1.7-1.7,2.4-2.6c0.7-0.8,1.4-1.6,2.1-2.3C-113.3,511-112.7,510.3-112,509.7z"/>
</g>
</svg>
